<svg xmlns="http://www.w3.org/2000/svg" viewBox="0 0 512 512" role="img" aria-label="IronLog app icon">
  <defs>
    <linearGradient id="shell" x1="78" x2="438" y1="42" y2="468" gradientUnits="userSpaceOnUse">
      <stop stop-color="#10263a"/>
      <stop offset="0.5" stop-color="#07111f"/>
      <stop offset="1" stop-color="#0b1424"/>
    </linearGradient>
    <linearGradient id="edge" x1="86" x2="426" y1="80" y2="432" gradientUnits="userSpaceOnUse">
      <stop stop-color="#31f2df"/>
      <stop offset="0.24" stop-color="#28c7bd"/>
      <stop offset="0.58" stop-color="#4e6f93"/>
      <stop offset="1" stop-color="#22344f"/>
    </linearGradient>
    <linearGradient id="metal" x1="176" x2="332" y1="92" y2="424" gradientUnits="userSpaceOnUse">
      <stop stop-color="#ffffff"/>
      <stop offset="0.52" stop-color="#e6ebf1"/>
      <stop offset="1" stop-color="#cdd6df"/>
    </linearGradient>
    <linearGradient id="teal" x1="196" x2="316" y1="168" y2="344" gradientUnits="userSpaceOnUse">
      <stop stop-color="#38f5e4"/>
      <stop offset="1" stop-color="#1a9f9a"/>
    </linearGradient>
    <filter id="softShadow" x="-30%" y="-30%" width="160%" height="160%">
      <feDropShadow dx="0" dy="10" stdDeviation="12" flood-color="#000814" flood-opacity="0.48"/>
      <feDropShadow dx="0" dy="0" stdDeviation="8" flood-color="#ffffff" flood-opacity="0.12"/>
    </filter>
    <filter id="edgeGlow" x="-30%" y="-30%" width="160%" height="160%">
      <feDropShadow dx="0" dy="0" stdDeviation="8" flood-color="#2dd4bf" flood-opacity="0.55"/>
    </filter>
  </defs>
  <rect width="512" height="512" fill="#020712"/>
  <rect x="62" y="62" width="388" height="388" rx="86" fill="url(#shell)" stroke="url(#edge)" stroke-width="5" filter="url(#edgeGlow)"/>
  <rect x="73" y="73" width="366" height="366" rx="76" fill="none" stroke="#dbeafe" stroke-opacity="0.08" stroke-width="2"/>
  <g filter="url(#softShadow)">
    <rect x="232" y="165" width="48" height="182" rx="10" fill="url(#metal)"/>
    <rect x="221" y="164" width="70" height="9" rx="4.5" fill="url(#teal)"/>
    <rect x="221" y="339" width="70" height="9" rx="4.5" fill="url(#teal)"/>
    <rect x="199" y="112" width="114" height="54" rx="13" fill="url(#metal)"/>
    <rect x="199" y="177" width="114" height="24" rx="12" fill="url(#metal)"/>
    <rect x="168" y="123" width="22" height="46" rx="10" fill="url(#metal)"/>
    <rect x="322" y="123" width="22" height="46" rx="10" fill="url(#metal)"/>
    <rect x="199" y="346" width="114" height="24" rx="12" fill="url(#metal)"/>
    <rect x="199" y="381" width="114" height="54" rx="13" fill="url(#metal)"/>
    <rect x="168" y="381" width="22" height="46" rx="10" fill="url(#metal)"/>
    <rect x="322" y="381" width="22" height="46" rx="10" fill="url(#metal)"/>
  </g>
</svg>
