<svg xmlns="http://www.w3.org/2000/svg" viewBox="0 0 180 180" role="img" aria-label="IronLog iPhone icon">
  <defs>
    <linearGradient id="shell" x1="24" x2="156" y1="18" y2="164" gradientUnits="userSpaceOnUse">
      <stop stop-color="#10263a"/>
      <stop offset="0.55" stop-color="#07111f"/>
      <stop offset="1" stop-color="#0b1424"/>
    </linearGradient>
    <linearGradient id="edge" x1="24" x2="156" y1="24" y2="156" gradientUnits="userSpaceOnUse">
      <stop stop-color="#31f2df"/>
      <stop offset="0.55" stop-color="#4e6f93"/>
      <stop offset="1" stop-color="#22344f"/>
    </linearGradient>
    <linearGradient id="metal" x1="58" x2="122" y1="35" y2="150" gradientUnits="userSpaceOnUse">
      <stop stop-color="#ffffff"/>
      <stop offset="1" stop-color="#cdd6df"/>
    </linearGradient>
  </defs>
  <rect width="180" height="180" fill="#020712"/>
  <rect x="20" y="20" width="140" height="140" rx="34" fill="url(#shell)" stroke="url(#edge)" stroke-width="3"/>
  <rect x="81" y="61" width="18" height="58" rx="5" fill="url(#metal)"/>
  <rect x="72" y="40" width="36" height="21" rx="6" fill="url(#metal)"/>
  <rect x="72" y="67" width="36" height="9" rx="4.5" fill="url(#metal)"/>
  <rect x="60" y="45" width="8" height="18" rx="4" fill="url(#metal)"/>
  <rect x="112" y="45" width="8" height="18" rx="4" fill="url(#metal)"/>
  <rect x="77" y="63" width="26" height="4" rx="2" fill="#2dd4bf"/>
  <rect x="77" y="116" width="26" height="4" rx="2" fill="#2dd4bf"/>
  <rect x="72" y="119" width="36" height="9" rx="4.5" fill="url(#metal)"/>
  <rect x="72" y="133" width="36" height="21" rx="6" fill="url(#metal)"/>
  <rect x="60" y="133" width="8" height="18" rx="4" fill="url(#metal)"/>
  <rect x="112" y="133" width="8" height="18" rx="4" fill="url(#metal)"/>
</svg>
