<svg xmlns="http://www.w3.org/2000/svg" viewBox="148 96 216 352" role="img" aria-label="IronLog I mark">
  <defs>
    <linearGradient id="metal" x1="176" x2="332" y1="92" y2="424" gradientUnits="userSpaceOnUse">
      <stop stop-color="#ffffff"/>
      <stop offset="0.52" stop-color="#e6ebf1"/>
      <stop offset="1" stop-color="#cdd6df"/>
    </linearGradient>
    <linearGradient id="teal" x1="196" x2="316" y1="168" y2="344" gradientUnits="userSpaceOnUse">
      <stop stop-color="#38f5e4"/>
      <stop offset="1" stop-color="#1a9f9a"/>
    </linearGradient>
    <filter id="softShadow" x="-30%" y="-30%" width="160%" height="160%">
      <feDropShadow dx="0" dy="10" stdDeviation="12" flood-color="#000814" flood-opacity="0.48"/>
      <feDropShadow dx="0" dy="0" stdDeviation="8" flood-color="#ffffff" flood-opacity="0.12"/>
    </filter>
  </defs>
  <g filter="url(#softShadow)">
    <rect x="232" y="165" width="48" height="182" rx="10" fill="url(#metal)"/>
    <rect x="221" y="164" width="70" height="9" rx="4.5" fill="url(#teal)"/>
    <rect x="221" y="339" width="70" height="9" rx="4.5" fill="url(#teal)"/>
    <rect x="199" y="112" width="114" height="54" rx="13" fill="url(#metal)"/>
    <rect x="199" y="177" width="114" height="24" rx="12" fill="url(#metal)"/>
    <rect x="168" y="123" width="22" height="46" rx="10" fill="url(#metal)"/>
    <rect x="322" y="123" width="22" height="46" rx="10" fill="url(#metal)"/>
    <rect x="199" y="346" width="114" height="24" rx="12" fill="url(#metal)"/>
    <rect x="199" y="381" width="114" height="54" rx="13" fill="url(#metal)"/>
    <rect x="168" y="381" width="22" height="46" rx="10" fill="url(#metal)"/>
    <rect x="322" y="381" width="22" height="46" rx="10" fill="url(#metal)"/>
  </g>
</svg>
